<mxfile host="app.diagrams.net" modified="2023-09-24T09:18:02.853Z" agent="Mozilla/5.0 (Macintosh; Intel Mac OS X 10_15_7) AppleWebKit/537.36 (KHTML, like Gecko) Chrome/117.0.0.0 Safari/537.36 Edg/117.0.2045.40" etag="wTCWsVJ2QZecWpCMK5n7" version="21.8.0" type="github">
  <diagram name="第 1 页" id="IM1opJAnyGw-9e7TNhWp">
    <mxGraphModel dx="1080" dy="629" grid="1" gridSize="10" guides="1" tooltips="1" connect="1" arrows="1" fold="1" page="1" pageScale="1" pageWidth="827" pageHeight="1169" math="1" shadow="0">
      <root>
        <mxCell id="0" />
        <mxCell id="1" parent="0" />
        <mxCell id="X22I2Q5TjrsaZpbLw3oU-11" style="rounded=0;orthogonalLoop=1;jettySize=auto;html=1;exitX=1;exitY=0.5;exitDx=0;exitDy=0;entryX=0;entryY=0.5;entryDx=0;entryDy=0;startArrow=none;startFill=0;endArrow=none;endFill=0;fontFamily=Times New Roman;fontSize=16;" edge="1" parent="1" source="X22I2Q5TjrsaZpbLw3oU-3" target="X22I2Q5TjrsaZpbLw3oU-4">
          <mxGeometry relative="1" as="geometry" />
        </mxCell>
        <mxCell id="X22I2Q5TjrsaZpbLw3oU-3" value="A" style="ellipse;whiteSpace=wrap;html=1;aspect=fixed;fontFamily=Times New Roman;fontSize=16;" vertex="1" parent="1">
          <mxGeometry x="520" y="160" width="30" height="30" as="geometry" />
        </mxCell>
        <mxCell id="X22I2Q5TjrsaZpbLw3oU-14" style="edgeStyle=orthogonalEdgeStyle;rounded=0;orthogonalLoop=1;jettySize=auto;html=1;exitX=0.5;exitY=1;exitDx=0;exitDy=0;entryX=0.5;entryY=0;entryDx=0;entryDy=0;endArrow=none;endFill=0;fontFamily=Times New Roman;fontSize=16;" edge="1" parent="1" source="X22I2Q5TjrsaZpbLw3oU-4" target="X22I2Q5TjrsaZpbLw3oU-5">
          <mxGeometry relative="1" as="geometry" />
        </mxCell>
        <mxCell id="X22I2Q5TjrsaZpbLw3oU-22" style="shape=connector;rounded=0;orthogonalLoop=1;jettySize=auto;html=1;exitX=1;exitY=0.5;exitDx=0;exitDy=0;labelBackgroundColor=default;strokeColor=default;align=center;verticalAlign=middle;fontFamily=Times New Roman;fontSize=16;fontColor=default;endArrow=none;endFill=0;entryX=0.5;entryY=0;entryDx=0;entryDy=0;" edge="1" parent="1" source="X22I2Q5TjrsaZpbLw3oU-4" target="X22I2Q5TjrsaZpbLw3oU-6">
          <mxGeometry relative="1" as="geometry">
            <mxPoint x="620" y="190" as="sourcePoint" />
            <mxPoint x="685" y="245" as="targetPoint" />
          </mxGeometry>
        </mxCell>
        <mxCell id="X22I2Q5TjrsaZpbLw3oU-4" value="A" style="ellipse;whiteSpace=wrap;html=1;aspect=fixed;fontFamily=Times New Roman;fontSize=16;" vertex="1" parent="1">
          <mxGeometry x="600" y="160" width="30" height="30" as="geometry" />
        </mxCell>
        <mxCell id="X22I2Q5TjrsaZpbLw3oU-17" style="edgeStyle=orthogonalEdgeStyle;shape=connector;rounded=0;orthogonalLoop=1;jettySize=auto;html=1;exitX=1;exitY=0.5;exitDx=0;exitDy=0;entryX=0;entryY=0.5;entryDx=0;entryDy=0;labelBackgroundColor=default;strokeColor=default;align=center;verticalAlign=middle;fontFamily=Times New Roman;fontSize=16;fontColor=default;endArrow=none;endFill=0;" edge="1" parent="1" source="X22I2Q5TjrsaZpbLw3oU-5" target="X22I2Q5TjrsaZpbLw3oU-6">
          <mxGeometry relative="1" as="geometry" />
        </mxCell>
        <mxCell id="X22I2Q5TjrsaZpbLw3oU-18" style="edgeStyle=orthogonalEdgeStyle;shape=connector;rounded=0;orthogonalLoop=1;jettySize=auto;html=1;exitX=0.5;exitY=1;exitDx=0;exitDy=0;entryX=0.5;entryY=0;entryDx=0;entryDy=0;labelBackgroundColor=default;strokeColor=default;align=center;verticalAlign=middle;fontFamily=Times New Roman;fontSize=16;fontColor=default;endArrow=none;endFill=0;" edge="1" parent="1" source="X22I2Q5TjrsaZpbLw3oU-5" target="X22I2Q5TjrsaZpbLw3oU-8">
          <mxGeometry relative="1" as="geometry" />
        </mxCell>
        <mxCell id="X22I2Q5TjrsaZpbLw3oU-5" value="A" style="ellipse;whiteSpace=wrap;html=1;aspect=fixed;fontFamily=Times New Roman;fontSize=16;" vertex="1" parent="1">
          <mxGeometry x="600" y="230" width="30" height="30" as="geometry" />
        </mxCell>
        <mxCell id="X22I2Q5TjrsaZpbLw3oU-19" style="edgeStyle=orthogonalEdgeStyle;shape=connector;rounded=0;orthogonalLoop=1;jettySize=auto;html=1;exitX=1;exitY=0.5;exitDx=0;exitDy=0;entryX=0;entryY=0.5;entryDx=0;entryDy=0;labelBackgroundColor=default;strokeColor=default;align=center;verticalAlign=middle;fontFamily=Times New Roman;fontSize=16;fontColor=default;endArrow=none;endFill=0;" edge="1" parent="1" source="X22I2Q5TjrsaZpbLw3oU-6" target="X22I2Q5TjrsaZpbLw3oU-7">
          <mxGeometry relative="1" as="geometry" />
        </mxCell>
        <mxCell id="X22I2Q5TjrsaZpbLw3oU-6" value="B" style="ellipse;whiteSpace=wrap;html=1;aspect=fixed;fontFamily=Times New Roman;fontSize=16;" vertex="1" parent="1">
          <mxGeometry x="680" y="230" width="30" height="30" as="geometry" />
        </mxCell>
        <mxCell id="X22I2Q5TjrsaZpbLw3oU-26" style="edgeStyle=none;shape=connector;rounded=0;orthogonalLoop=1;jettySize=auto;html=1;exitX=0.5;exitY=1;exitDx=0;exitDy=0;entryX=1;entryY=0.5;entryDx=0;entryDy=0;labelBackgroundColor=default;strokeColor=default;align=center;verticalAlign=middle;fontFamily=Times New Roman;fontSize=16;fontColor=default;endArrow=none;endFill=0;" edge="1" parent="1" source="X22I2Q5TjrsaZpbLw3oU-7" target="X22I2Q5TjrsaZpbLw3oU-8">
          <mxGeometry relative="1" as="geometry" />
        </mxCell>
        <mxCell id="X22I2Q5TjrsaZpbLw3oU-7" value="C" style="ellipse;whiteSpace=wrap;html=1;aspect=fixed;fontFamily=Times New Roman;fontSize=16;" vertex="1" parent="1">
          <mxGeometry x="760" y="230" width="30" height="30" as="geometry" />
        </mxCell>
        <mxCell id="X22I2Q5TjrsaZpbLw3oU-8" value="D" style="ellipse;whiteSpace=wrap;html=1;aspect=fixed;fontFamily=Times New Roman;fontSize=16;" vertex="1" parent="1">
          <mxGeometry x="600" y="310" width="30" height="30" as="geometry" />
        </mxCell>
        <mxCell id="X22I2Q5TjrsaZpbLw3oU-25" style="shape=connector;rounded=0;orthogonalLoop=1;jettySize=auto;html=1;exitX=0.5;exitY=1;exitDx=0;exitDy=0;entryX=0;entryY=0.5;entryDx=0;entryDy=0;labelBackgroundColor=default;strokeColor=default;align=center;verticalAlign=middle;fontFamily=Times New Roman;fontSize=16;fontColor=default;endArrow=none;endFill=0;" edge="1" parent="1" source="X22I2Q5TjrsaZpbLw3oU-3" target="X22I2Q5TjrsaZpbLw3oU-5">
          <mxGeometry relative="1" as="geometry" />
        </mxCell>
        <mxCell id="X22I2Q5TjrsaZpbLw3oU-28" value="$$u_0$$" style="text;html=1;strokeColor=none;fillColor=none;align=center;verticalAlign=middle;whiteSpace=wrap;rounded=0;fontSize=11;fontFamily=Helvetica;fontColor=default;" vertex="1" parent="1">
          <mxGeometry x="480" y="140" width="60" height="30" as="geometry" />
        </mxCell>
        <mxCell id="X22I2Q5TjrsaZpbLw3oU-29" value="$$u_1$$" style="text;html=1;strokeColor=none;fillColor=none;align=center;verticalAlign=middle;whiteSpace=wrap;rounded=0;fontSize=11;fontFamily=Helvetica;fontColor=default;" vertex="1" parent="1">
          <mxGeometry x="570" y="140" width="60" height="30" as="geometry" />
        </mxCell>
        <mxCell id="X22I2Q5TjrsaZpbLw3oU-30" value="$$u_2$$" style="text;html=1;strokeColor=none;fillColor=none;align=center;verticalAlign=middle;whiteSpace=wrap;rounded=0;fontSize=11;fontFamily=Helvetica;fontColor=default;" vertex="1" parent="1">
          <mxGeometry x="560" y="240" width="60" height="30" as="geometry" />
        </mxCell>
        <mxCell id="X22I2Q5TjrsaZpbLw3oU-31" value="$$u_3$$" style="text;html=1;strokeColor=none;fillColor=none;align=center;verticalAlign=middle;whiteSpace=wrap;rounded=0;fontSize=11;fontFamily=Helvetica;fontColor=default;" vertex="1" parent="1">
          <mxGeometry x="640" y="240" width="60" height="30" as="geometry" />
        </mxCell>
        <mxCell id="X22I2Q5TjrsaZpbLw3oU-32" value="$$u_4$$" style="text;html=1;strokeColor=none;fillColor=none;align=center;verticalAlign=middle;whiteSpace=wrap;rounded=0;fontSize=11;fontFamily=Helvetica;fontColor=default;" vertex="1" parent="1">
          <mxGeometry x="720" y="240" width="60" height="30" as="geometry" />
        </mxCell>
        <mxCell id="X22I2Q5TjrsaZpbLw3oU-33" value="$$u_5$$" style="text;html=1;strokeColor=none;fillColor=none;align=center;verticalAlign=middle;whiteSpace=wrap;rounded=0;fontSize=11;fontFamily=Helvetica;fontColor=default;" vertex="1" parent="1">
          <mxGeometry x="560" y="320" width="60" height="30" as="geometry" />
        </mxCell>
        <mxCell id="X22I2Q5TjrsaZpbLw3oU-34" value="(b) Query Graph Q" style="text;html=1;strokeColor=none;fillColor=none;align=center;verticalAlign=middle;whiteSpace=wrap;rounded=0;fontSize=16;fontFamily=Times New Roman;fontColor=default;" vertex="1" parent="1">
          <mxGeometry x="520" y="370" width="240" height="20" as="geometry" />
        </mxCell>
      </root>
    </mxGraphModel>
  </diagram>
</mxfile>
